#N canvas 686 182 1000 650 12;
#X text 50 20 Pure Data - Earthquake Sonifier;
#X text 50 40 Receives data from Processing on port 3000 via UDP;
#X text 50 60 Native Pure Data objects only - no externals needed!;
#X obj 100 120 netreceive -u 3000;
#X obj 100 150 print RAW_DATA;
#X obj 100 180 unpack f f f f f f f f f;
#X floatatom 100 220 7 0 0 0 - - - 0;
#X floatatom 160 220 7 0 0 0 - - - 0;
#X floatatom 220 220 7 0 0 0 - - - 0;
#X floatatom 280 220 7 0 0 0 - - - 0;
#X floatatom 340 220 7 0 0 0 - - - 0;
#X floatatom 400 220 7 0 0 0 - - - 0;
#X floatatom 460 220 7 0 0 0 - - - 0;
#X floatatom 520 220 7 0 0 0 - - - 0;
#X floatatom 580 220 7 0 0 0 - - - 0;
#X text 100 245 amplitude;
#X text 160 245 pitch Hz;
#X text 220 245 pan;
#X text 280 245 tsunami;
#X text 340 245 signif;
#X text 400 245 mag;
#X text 460 245 depth;
#X text 520 245 duration;
#X text 580 245 trigger;
#X obj 160 280 osc~;
#X obj 580 280 sel 1;
#X obj 580 310 bng 15 250 50 0 empty empty START 17 7 0 10 #fcfc00 #000000 #000000;
#X obj 520 310 pack f 10;
#X msg 100 340 1 10 \, 0 $1 10;
#X obj 100 370 line~;
#X obj 100 400 *~;
#X obj 100 430 *~ 0.6;
#X obj 100 500 dac~;
#X obj 280 280 sel 1;
#X obj 280 310 bng 20 250 50 0 empty empty TSUNAMI! 20 10 0 12 #ff0000 #000000 #000000;
#X obj 280 340 del 500;
#X msg 280 370 1 \, 0 300;
#X obj 280 400 line~;
#X obj 280 430 noise~;
#X obj 280 460 lop~ 120;
#X obj 280 490 *~;
#X obj 280 520 *~ 0.5;
#X text 650 120 Instructions:;
#X text 650 145 1. Turn on audio: Media -> Audio ON;
#X text 650 165 2. Check connection: should see "connection from...";
#X text 650 185 3. Run Processing sketch;
#X text 650 205 4. You'll see RAW_DATA in console;
#X text 650 225 5. Listen to earthquake sounds!;
#X text 650 270 Sound Design:;
#X text 650 290 - Amplitude: volume (magnitude);
#X text 650 310 - Pitch: tone (depth \, inverted);
#X text 650 330 - Pan: stereo position (longitude);
#X text 650 350 - Tsunami: bass hit with decay;
#X text 650 390 Data Flow:;
#X text 650 410 Processing -> UDP port 3000;
#X text 650 430 -> netreceive unpacks 9 floats;
#X text 650 450 -> osc~ generates tone with envelope;
#X text 650 470 -> mixed with tsunami sound;
#X text 650 490 -> output to speakers;
#X text 50 580 Envelope: trigger=1 starts \, duration controls fade time;
#X connect 3 0 4 0;
#X connect 3 0 5 0;
#X connect 5 0 6 0;
#X connect 5 1 7 0;
#X connect 5 2 8 0;
#X connect 5 3 9 0;
#X connect 5 4 10 0;
#X connect 5 5 11 0;
#X connect 5 6 12 0;
#X connect 5 7 13 0;
#X connect 5 8 14 0;
#X connect 6 0 30 0;
#X connect 7 0 24 0;
#X connect 9 0 33 0;
#X connect 13 0 27 0;
#X connect 14 0 25 0;
#X connect 24 0 30 1;
#X connect 25 0 26 0;
#X connect 26 0 28 0;
#X connect 27 0 28 0;
#X connect 28 0 29 0;
#X connect 29 0 30 1;
#X connect 30 0 31 0;
#X connect 31 0 32 0;
#X connect 31 0 32 1;
#X connect 33 0 34 0;
#X connect 34 0 35 0;
#X connect 35 0 34 0;
#X connect 35 0 36 0;
#X connect 36 0 37 0;
#X connect 37 0 40 1;
#X connect 38 0 39 0;
#X connect 39 0 40 0;
#X connect 40 0 41 0;
#X connect 41 0 32 0;
#X connect 41 0 32 1;
